<svg width="80" height="32" viewBox="0 0 80 32" fill="none" xmlns="http://www.w3.org/2000/svg">
<path d="M21.3333 27.6668C21.0678 27.668 20.8131 27.5623 20.6266 27.3735L9.95993 16.7068C9.57 16.3164 9.57 15.6839 9.95993 15.2935L20.6266 4.62679C21.0206 4.25964 21.6346 4.27048 22.0154 4.65129C22.3962 5.03211 22.4071 5.64611 22.0399 6.04012L12.0799 16.0001L22.0399 25.9601C22.4299 26.3505 22.4299 26.983 22.0399 27.3735C21.8534 27.5623 21.5987 27.668 21.3333 27.6668Z" fill="black"/>
<path d="M58.6667 4.33321C58.9322 4.33196 59.1869 4.4377 59.3734 4.62654L70.0401 15.2932C70.43 15.6836 70.43 16.3161 70.0401 16.7065L59.3734 27.3732C58.9794 27.7404 58.3654 27.7295 57.9846 27.3487C57.6038 26.9679 57.5929 26.3539 57.9601 25.9599L67.9201 15.9999L57.9601 6.03988C57.5701 5.64945 57.5701 5.01697 57.9601 4.62654C58.1466 4.4377 58.4013 4.33196 58.6667 4.33321Z" fill="black"/>
</svg>
