<svg width="48" height="48" viewBox="0 0 48 48" fill="none" xmlns="http://www.w3.org/2000/svg">
<g clip-path="url(#clip0_5522_1962)">
<path d="M10 14H12C13.0609 14 14.0783 13.5786 14.8284 12.8284C15.5786 12.0783 16 11.0609 16 10C16 9.46957 16.2107 8.96086 16.5858 8.58579C16.9609 8.21071 17.4696 8 18 8H30C30.5304 8 31.0391 8.21071 31.4142 8.58579C31.7893 8.96086 32 9.46957 32 10C32 11.0609 32.4214 12.0783 33.1716 12.8284C33.9217 13.5786 34.9391 14 36 14H38C39.0609 14 40.0783 14.4214 40.8284 15.1716C41.5786 15.9217 42 16.9391 42 18V36C42 37.0609 41.5786 38.0783 40.8284 38.8284C40.0783 39.5786 39.0609 40 38 40H10C8.93913 40 7.92172 39.5786 7.17157 38.8284C6.42143 38.0783 6 37.0609 6 36V18C6 16.9391 6.42143 15.9217 7.17157 15.1716C7.92172 14.4214 8.93913 14 10 14" stroke="black" stroke-width="2" stroke-linecap="round" stroke-linejoin="round"/>
<path d="M24 32C27.3137 32 30 29.3137 30 26C30 22.6863 27.3137 20 24 20C20.6863 20 18 22.6863 18 26C18 29.3137 20.6863 32 24 32Z" stroke="black" stroke-width="2" stroke-linecap="round" stroke-linejoin="round"/>
</g>
<defs>
<clipPath id="clip0_5522_1962">
<rect width="48" height="48" fill="white"/>
</clipPath>
</defs>
</svg>
