<svg width="25" height="24" viewBox="0 0 25 24" fill="none" xmlns="http://www.w3.org/2000/svg">
<path d="M13.4376 5.72691C13.4376 5.97254 13.4376 6.77312 13.4376 7.91049H17.3481L16.9241 11.3964H13.4376C13.4376 16.7724 13.4376 23.9765 13.4376 23.9765H8.80983C8.80983 23.9765 8.80983 16.8678 8.80983 11.3964H6.39844V7.91049H8.80983C8.80983 6.52805 8.80983 5.54504 8.80983 5.27134C8.80983 3.96727 8.71158 3.34852 9.26569 2.33799C9.82008 1.32751 11.3838 -0.00814899 14.0885 0.0240073C16.7938 0.0573354 17.9341 0.317585 17.9341 0.317585L17.3481 4.03276C17.3481 4.03276 15.6206 3.57662 14.7727 3.73918C13.9259 3.90179 13.4376 4.42341 13.4376 5.72691Z" fill="white"/>
</svg>
