<svg width="24" height="24" viewBox="0 0 24 24" fill="none" xmlns="http://www.w3.org/2000/svg">
<path d="M20 19H14M14 19C14 17.8954 13.1046 17 12 17C10.8954 17 10 17.8954 10 19M14 19C14 20.1046 13.1046 21 12 21C10.8954 21 10 20.1046 10 19M10 19H4M20 12L8 12M8 12C8 10.8954 7.1046 10 6 10C4.8954 10 4 10.8954 4 12C4 13.1046 4.8954 14 6 14C7.1046 14 8 13.1046 8 12ZM16 5L4 5M16 5C16 6.1046 16.8954 7 18 7C19.1046 7 20 6.1046 20 5C20 3.8954 19.1046 3 18 3C16.8954 3 16 3.8954 16 5Z" stroke="black" stroke-linecap="round"/>
</svg>
