<svg width="25" height="24" viewBox="0 0 25 24" fill="none" xmlns="http://www.w3.org/2000/svg">
<path d="M12.5 22C10.3558 22 8.81273 21.9989 7.6097 21.8823C6.42045 21.767 5.6597 21.5455 5.05258 21.1639C4.35868 20.728 3.77192 20.1413 3.33591 19.4474C2.95455 18.8403 2.73288 18.0795 2.61773 16.8903C2.50106 15.6873 2.5 14.1442 2.5 12C2.5 9.85576 2.50106 8.31273 2.61773 7.1097C2.73288 5.92045 2.95455 5.1597 3.33591 4.55258C3.7719 3.85866 4.35866 3.2719 5.05258 2.83591C5.6597 2.45455 6.42045 2.23288 7.6097 2.11773C8.81258 2.00106 10.3556 2 12.5 2C14.6442 2 16.1873 2.00106 17.3903 2.11773C18.5795 2.23288 19.3403 2.45455 19.9474 2.83591C20.6413 3.27192 21.228 3.85868 21.6639 4.55258C22.0455 5.1597 22.267 5.92045 22.3823 7.1097C22.4989 8.31273 22.5 9.85576 22.5 12C22.5 14.1442 22.4989 15.6873 22.3823 16.8903C22.267 18.0795 22.0455 18.8403 21.6639 19.4474C21.228 20.1413 20.6413 20.728 19.9474 21.1639C19.3403 21.5455 18.5795 21.767 17.3903 21.8823C16.1873 21.9989 14.6442 22 12.5 22Z" fill="white" stroke="white" stroke-width="2"/>
<path d="M12.5 17C14.7091 17 16.5 15.2091 16.5 13C16.5 10.7909 14.7091 9 12.5 9C10.2909 9 8.5 10.7909 8.5 13C8.5 15.2091 10.2909 17 12.5 17Z" fill="white" stroke="black" stroke-width="2"/>
<path d="M17.375 8.25C17.9963 8.25 18.5 7.74632 18.5 7.125C18.5 6.50368 17.9963 6 17.375 6C16.7537 6 16.25 6.50368 16.25 7.125C16.25 7.74632 16.7537 8.25 17.375 8.25Z" fill="black"/>
</svg>
