<svg width="173" height="16" viewBox="0 0 173 16" fill="none" xmlns="http://www.w3.org/2000/svg">
<path fill-rule="evenodd" clip-rule="evenodd" d="M16 2.91193C15.4121 3.17965 14.7791 3.3607 14.1152 3.4416C14.7932 3.02556 15.3135 2.36588 15.5586 1.58004C14.9238 1.96525 14.2222 2.2455 13.4728 2.39573C12.8755 1.74183 12.0218 1.3335 11.0771 1.3335C9.26548 1.3335 7.79574 2.84066 7.79574 4.69933C7.79574 4.9632 7.82391 5.21938 7.88026 5.46592C5.15208 5.32531 2.73381 3.98668 1.11381 1.94792C0.831132 2.44677 0.669596 3.02556 0.669596 3.64191C0.669596 4.80912 1.24905 5.83958 2.12995 6.4434C1.59277 6.42703 1.08563 6.27391 0.642365 6.02352V6.06493C0.642365 7.69632 1.77402 9.0571 3.27663 9.36527C3.00147 9.44424 2.71128 9.48373 2.41169 9.48373C2.20039 9.48373 1.99378 9.46351 1.79374 9.42402C2.21166 10.7607 3.42313 11.7344 4.86001 11.7604C3.7368 12.6637 2.32059 13.202 0.783234 13.202C0.518398 13.202 0.256383 13.1866 0 13.1558C1.45284 14.1092 3.17896 14.6668 5.03187 14.6668C11.0705 14.6668 14.3715 9.53862 14.3715 5.09033C14.3715 4.94394 14.3687 4.79756 14.3631 4.65407C15.0045 4.17929 15.5614 3.58702 16 2.91193Z" fill="white"/>
<path d="M61.1811 3.81794C61.1811 3.98169 61.1811 4.51541 61.1811 5.27366H63.7881L63.5054 7.59763H61.1811C61.1811 11.1816 61.1811 15.9843 61.1811 15.9843H58.0959C58.0959 15.9843 58.0959 11.2452 58.0959 7.59763H56.4883V5.27366H58.0959C58.0959 4.35204 58.0959 3.69669 58.0959 3.51422C58.0959 2.64485 58.0304 2.23235 58.3998 1.55866C58.7694 0.885005 59.8119 -0.00543266 61.615 0.0160048C63.4185 0.0382236 64.1787 0.211724 64.1787 0.211724L63.7881 2.6885C63.7881 2.6885 62.6364 2.38441 62.0711 2.49279C61.5066 2.60119 61.1811 2.94894 61.1811 3.81794Z" fill="white"/>
<path d="M116.55 3.358C115.891 2.59144 115.546 1.60104 115.573 0.592723L113.109 0.533203C113.109 0.533203 113.109 0.638323 113.109 0.780083V10.6602C113.144 13.786 108.205 13.7102 108.596 10.2551C108.835 8.88136 110.311 8.03592 111.623 8.51384V5.99992C108.767 5.50264 106.061 7.7756 106.089 10.6713C106.339 16.9513 115.346 16.9521 115.596 10.6713C115.533 10.4465 115.568 6.26152 115.559 5.90856C116.68 6.60568 117.983 6.95416 119.303 6.90952V4.3132C118.083 4.3132 117.151 3.98872 116.55 3.358Z" fill="white"/>
<g clip-path="url(#clip0_5522_763)">
<path d="M165 14.6666C163.571 14.6666 162.542 14.6659 161.74 14.5881C160.947 14.5112 160.44 14.3636 160.035 14.1092C159.573 13.8186 159.181 13.4274 158.891 12.9649C158.637 12.5601 158.489 12.0529 158.412 11.2601C158.334 10.4581 158.333 9.42941 158.333 7.99992C158.333 6.57042 158.334 5.54174 158.412 4.73972C158.489 3.94689 158.637 3.43972 158.891 3.03497C159.181 2.57236 159.573 2.18119 160.035 1.89052C160.44 1.63628 160.947 1.4885 161.74 1.41174C162.542 1.33396 163.571 1.33325 165 1.33325C166.43 1.33325 167.458 1.33396 168.26 1.41174C169.053 1.4885 169.56 1.63628 169.965 1.89052C170.428 2.1812 170.819 2.57237 171.109 3.03497C171.364 3.43972 171.511 3.94689 171.588 4.73972C171.666 5.54174 171.667 6.57042 171.667 7.99992C171.667 9.42941 171.666 10.4581 171.588 11.2601C171.511 12.0529 171.364 12.5601 171.109 12.9649C170.819 13.4274 170.428 13.8186 169.965 14.1092C169.56 14.3636 169.053 14.5112 168.26 14.5881C167.458 14.6659 166.43 14.6666 165 14.6666Z" fill="white" stroke="white" stroke-width="2"/>
<path d="M165 11.3333C166.473 11.3333 167.667 10.1394 167.667 8.66667C167.667 7.19391 166.473 6 165 6C163.527 6 162.333 7.19391 162.333 8.66667C162.333 10.1394 163.527 11.3333 165 11.3333Z" fill="white" stroke="black" stroke-width="2"/>
<path d="M168.25 5.5C168.664 5.5 169 5.16421 169 4.75C169 4.33579 168.664 4 168.25 4C167.836 4 167.5 4.33579 167.5 4.75C167.5 5.16421 167.836 5.5 168.25 5.5Z" fill="black"/>
</g>
<defs>
<clipPath id="clip0_5522_763">
<rect width="16" height="16" fill="white" transform="translate(157)"/>
</clipPath>
</defs>
</svg>
