<svg width="25" height="24" viewBox="0 0 25 24" fill="none" xmlns="http://www.w3.org/2000/svg">
<path d="M18.6591 5.037C17.67 3.88716 17.1519 2.40156 17.1931 0.889085L13.4974 0.799805C13.4974 0.799805 13.4974 0.957485 13.4974 1.17012V15.9904C13.549 20.679 6.14113 20.5652 6.72721 15.3827C7.08553 13.322 9.29977 12.0539 11.2673 12.7708V8.99988C6.98377 8.25396 2.92441 11.6634 2.96713 16.0069C3.34153 25.4269 16.8526 25.4281 17.2275 16.0069C17.1331 15.6697 17.1859 9.39229 17.1725 8.86285C18.853 9.90853 20.8083 10.4312 22.7885 10.3643V6.4698C20.9578 6.4698 19.5607 5.98308 18.6591 5.037Z" fill="white"/>
</svg>
