<svg width="25" height="24" viewBox="0 0 25 24" fill="none" xmlns="http://www.w3.org/2000/svg">
<g clip-path="url(#clip0_5759_794)">
<path fill-rule="evenodd" clip-rule="evenodd" d="M24.5 4.36765C23.6182 4.76923 22.6687 5.04081 21.6727 5.16215C22.6898 4.5381 23.4702 3.54858 23.8379 2.36981C22.8856 2.94764 21.8333 3.368 20.7092 3.59335C19.8133 2.61249 18.5328 2 17.1156 2C14.3982 2 12.1936 4.26074 12.1936 7.04875C12.1936 7.44456 12.2359 7.82882 12.3204 8.19863C8.22812 7.98772 4.60072 5.97977 2.17072 2.92163C1.7467 3.66992 1.50439 4.5381 1.50439 5.46262C1.50439 7.21344 2.37357 8.75912 3.69493 9.66486C2.88916 9.64031 2.12845 9.41062 1.46355 9.03503V9.09714C1.46355 11.5442 3.16103 13.5854 5.41495 14.0477C5.0022 14.1661 4.56691 14.2253 4.11754 14.2253C3.80058 14.2253 3.49067 14.195 3.19061 14.1358C3.81748 16.1408 5.6347 17.6013 7.79001 17.6403C6.1052 18.9953 3.98089 19.8028 1.67485 19.8028C1.2776 19.8028 0.884575 19.7797 0.5 19.7335C2.67926 21.1636 5.26844 22 8.04781 22C17.1057 22 22.0573 14.3077 22.0573 7.63525C22.0573 7.41567 22.0531 7.1961 22.0446 6.98086C23.0068 6.26869 23.8421 5.38028 24.5 4.36765Z" fill="white"/>
</g>
<defs>
<clipPath id="clip0_5759_794">
<rect width="24" height="24" fill="white" transform="translate(0.5)"/>
</clipPath>
</defs>
</svg>
