<svg width="144" height="32" viewBox="0 0 144 32" fill="none" xmlns="http://www.w3.org/2000/svg">
<path d="M11 7C8.239 7 6 9.216 6 11.95C6 14.157 6.875 19.395 15.488 24.69C15.6423 24.7839 15.8194 24.8335 16 24.8335C16.1806 24.8335 16.3577 24.7839 16.512 24.69C25.125 19.395 26 14.157 26 11.95C26 9.216 23.761 7 21 7C18.239 7 16 10 16 10C16 10 13.761 7 11 7Z" stroke="black" stroke-width="1.5" stroke-linecap="round" stroke-linejoin="round"/>
<path d="M59 5H63L66 22H82M66 16.6667H81.59C81.7056 16.6667 81.8177 16.6267 81.9072 16.5535C81.9966 16.4802 82.0579 16.3782 82.0806 16.2648L83.8806 7.26479C83.8951 7.19222 83.8934 7.11733 83.8755 7.04552C83.8575 6.97372 83.8239 6.90679 83.7769 6.84956C83.73 6.79234 83.6709 6.74625 83.604 6.71462C83.5371 6.68299 83.464 6.66662 83.39 6.66667H64M68 26C68 26.5523 67.5523 27 67 27C66.4477 27 66 26.5523 66 26C66 25.4477 66.4477 25 67 25C67.5523 25 68 25.4477 68 26ZM82 26C82 26.5523 81.5523 27 81 27C80.4477 27 80 26.5523 80 26C80 25.4477 80.4477 25 81 25C81.5523 25 82 25.4477 82 26Z" stroke="black" stroke-width="1.5" stroke-linecap="round" stroke-linejoin="round"/>
<path d="M136 27V24.3333C136 22.9188 135.522 21.5623 134.672 20.5621C133.822 19.5619 132.669 19 131.467 19H123.533C122.331 19 121.178 19.5619 120.328 20.5621C119.478 21.5623 119 22.9188 119 24.3333V27M133 9.5C133 11.9853 130.985 14 128.5 14C126.015 14 124 11.9853 124 9.5C124 7.01472 126.015 5 128.5 5C130.985 5 133 7.01472 133 9.5Z" stroke="black" stroke-width="1.5" stroke-linecap="round" stroke-linejoin="round"/>
</svg>
